<svg xmlns="http://www.w3.org/2000/svg" viewBox="0 0 64 64" fill="none">
  <defs>
    <linearGradient id="bg" x1="0" y1="0" x2="64" y2="64" gradientUnits="userSpaceOnUse">
      <stop offset="0%" stop-color="#6366f1"/>
      <stop offset="100%" stop-color="#a855f7"/>
    </linearGradient>
    <linearGradient id="shine" x1="0" y1="0" x2="32" y2="32" gradientUnits="userSpaceOnUse">
      <stop offset="0%" stop-color="#ffffff" stop-opacity="0.25"/>
      <stop offset="100%" stop-color="#ffffff" stop-opacity="0"/>
    </linearGradient>
  </defs>
  <rect width="64" height="64" rx="14" fill="url(#bg)"/>
  <rect width="64" height="64" rx="14" fill="url(#shine)"/>
  <!-- Document shape -->
  <rect x="18" y="12" width="28" height="36" rx="3" fill="white" opacity="0.95"/>
  <!-- Text lines -->
  <rect x="23" y="18" width="14" height="2.5" rx="1.25" fill="#6366f1" opacity="0.9"/>
  <rect x="23" y="23" width="18" height="2" rx="1" fill="#94a3b8" opacity="0.6"/>
  <rect x="23" y="27" width="16" height="2" rx="1" fill="#94a3b8" opacity="0.6"/>
  <rect x="23" y="31" width="18" height="2" rx="1" fill="#94a3b8" opacity="0.6"/>
  <rect x="23" y="35" width="12" height="2" rx="1" fill="#94a3b8" opacity="0.6"/>
  <rect x="23" y="39" width="15" height="2" rx="1" fill="#94a3b8" opacity="0.6"/>
  <!-- AI sparkle -->
  <g transform="translate(42, 38)">
    <circle cx="0" cy="0" r="10" fill="#a855f7" opacity="0.15"/>
    <path d="M0-7 L1.5-2 L7 0 L1.5 2 L0 7 L-1.5 2 L-7 0 L-1.5-2Z" fill="#fbbf24" opacity="0.95"/>
    <path d="M5-5 L5.8-2.5 L8.5-2 L5.8-1.2 L5 1 L4.2-1.2 L1.5-2 L4.2-2.5Z" fill="#fbbf24" opacity="0.7" transform="scale(0.5)"/>
  </g>
</svg>
